<svg width="1380" height="139" viewBox="0 0 1380 139" fill="none" xmlns="http://www.w3.org/2000/svg">
<path d="M270.245 75.1748C270.245 81.7939 267.649 87.7641 263.496 92.1768L230.27 129.296C226.896 133.189 221.704 135.526 215.994 134.877C208.856 134.098 203.145 128.258 202.236 121.119C201.847 117.875 202.366 114.76 203.794 112.034H203.664L217.811 77.3811C221.056 69.3344 215.215 60.6387 206.519 60.6387H197.045C193.281 60.6387 189.777 62.3259 187.441 65.311L173.554 83.2215C169.79 88.5428 163.56 91.9173 156.681 91.9173C145.001 91.9173 135.656 82.4428 135.915 70.762C136.045 59.3408 145.909 50.3855 157.33 50.3855H245.845C259.343 50.6451 270.245 61.5472 270.245 75.1748Z" fill="white"/>
<path d="M601.013 52.2888C612.564 52.2888 622.039 61.893 621.779 73.5739C621.52 84.9951 611.786 93.9504 600.364 93.9504H536.639C533.914 93.9504 531.448 92.0036 531.188 89.278C530.928 86.1632 533.265 83.5674 536.38 83.5674C545.984 82.1398 555.328 78.7653 563.635 73.7036L566.36 72.0164C570.773 69.2909 568.826 62.542 563.765 62.542H518.599C513.537 62.542 510.552 68.2526 513.537 72.4058C517.56 76.1696 520.026 81.7504 519.118 87.9802C517.95 95.6376 511.72 101.738 504.063 102.646C495.626 103.684 488.358 98.7525 485.633 91.6142H485.503V91.3546C485.244 90.7057 485.114 90.1866 484.984 89.5376L482.258 80.8419C477.975 66.6951 488.488 52.2888 503.284 52.2888H601.013ZM522.622 98.3631C530.799 94.8589 539.105 96.027 541.052 100.829C542.999 105.631 537.937 112.25 529.76 115.625C521.454 118.999 513.277 117.961 511.201 113.159C509.254 108.357 514.316 101.738 522.622 98.3631Z" fill="white"/>
<path d="M760.921 45.4384C751.447 43.3618 744.439 35.0555 743.79 25.4512C743.011 12.0832 754.173 1.18111 767.541 2.21941C777.924 3.12791 786.36 11.3045 787.528 21.5576C787.917 25.0619 787.528 28.3065 786.489 31.2916C786.23 32.3299 785.321 33.7576 784.672 34.5363C784.543 34.6661 784.413 34.7959 784.413 34.7959C784.283 35.0555 784.153 35.1852 784.153 35.315C784.024 35.7044 783.894 35.964 783.894 36.3533C783.894 36.4831 783.894 36.4831 783.894 36.6129C783.894 38.5597 785.321 39.9874 787.138 39.9874C788.436 39.9874 789.475 39.3384 789.994 38.3001C790.253 38.0406 790.383 37.781 790.383 37.3916C790.383 37.1321 790.513 36.8725 790.513 36.6129C790.513 35.1852 790.772 33.6278 791.292 32.3299C793.758 26.1002 799.728 21.947 806.866 21.947C816.73 21.947 824.647 30.5129 823.608 40.7661C822.7 48.4235 816.6 54.5235 808.943 55.5618C804.53 56.0809 800.506 54.9128 797.262 52.5767C795.834 51.6682 794.536 50.2405 793.628 48.8129C793.368 48.4235 792.979 48.0341 792.589 47.9044C792.2 47.515 791.551 47.3852 790.902 47.3852C789.085 47.3852 787.658 48.8129 787.658 50.6299C787.658 50.8894 787.658 51.149 787.787 51.4086C787.787 51.798 787.917 52.0575 788.047 52.3171C788.177 52.3171 788.177 52.4469 788.306 52.4469C789.345 53.8745 789.994 55.5618 789.994 57.3788C789.994 62.9596 784.932 67.3724 779.221 66.3341C775.717 65.6851 772.862 62.9596 772.083 59.4554C771.564 56.7299 772.083 54.2639 773.511 52.3171C774.16 51.4086 775.198 50.7597 776.236 50.3703C776.366 50.3703 776.366 50.3703 776.496 50.3703C776.755 50.2405 777.015 49.9809 777.275 49.8512C777.664 49.5916 777.924 49.2022 778.183 48.8129C778.572 48.2937 778.702 47.6448 778.702 46.9958C778.702 46.6065 778.702 46.2171 778.443 45.8278C777.924 44.1405 775.977 43.4916 774.419 44.1405C774.16 44.2703 773.9 44.4001 773.641 44.5299C773.121 44.6597 772.602 44.7895 772.213 45.049C768.709 46.0873 764.945 46.3469 760.921 45.4384Z" fill="white"/>
<path fill-rule="evenodd" clip-rule="evenodd" d="M143.975 46.9296C143.068 45.4595 142.01 44.0914 140.824 42.8433L107.469 5.72431C104.224 1.83071 99.0326 -0.63524 93.322 0.143479C86.1837 0.922205 80.3433 6.7626 79.5646 13.9009C79.0454 17.1456 79.6944 20.2604 80.9922 22.8562L89.4284 43.622C90.856 46.9965 88.3901 50.6305 84.756 50.6305H21.4201C9.99886 50.6305 0.135067 59.5858 0.0052797 71.007C-0.254294 82.6879 9.09035 92.1623 20.7712 92.1623H85.1454C87.7411 92.1623 90.2071 90.2155 90.4667 87.49C90.856 84.5049 88.3901 81.9091 85.405 81.9091C75.671 80.3517 66.4561 76.9772 58.1497 71.9156L55.4242 70.2283C51.0115 67.6326 52.8285 60.8837 58.02 60.8837H88.2603C93.1922 60.8837 97.6049 63.8688 99.5517 68.4113L99.9411 69.4496C103.835 78.924 113.698 85.4134 124.86 84.5049C127.143 84.3233 129.348 83.8203 131.427 83.0416C129.912 79.5874 129.071 75.7704 129.071 71.7569C129.071 61.0038 135.107 51.6604 143.975 46.9296Z" fill="white"/>
<path fill-rule="evenodd" clip-rule="evenodd" d="M755.852 72.16C756.111 60.4792 746.637 51.0048 735.086 51.0048H671.101C667.467 51.0048 665.001 47.3708 666.299 43.9963L674.735 23.2304C676.033 20.6347 676.682 17.5198 676.293 14.2751C675.384 7.13687 669.544 1.29647 662.405 0.517746C656.695 -0.260972 651.503 2.20498 648.259 6.09858L615.033 43.2176C613.444 44.89 612.085 46.7779 611.006 48.8379C621.03 51.6385 628.384 60.839 628.384 71.757C628.384 76.1045 627.218 80.1797 625.182 83.6869C627.041 84.3119 628.991 84.7196 630.997 84.8791C642.159 85.7877 651.893 79.2983 655.916 69.8239L656.305 68.7856C658.122 64.2431 662.665 61.258 667.597 61.258H697.837C702.899 61.258 704.846 68.0069 700.433 70.6026L697.707 72.2898C689.271 77.3515 680.056 80.726 670.452 82.2834C667.337 82.2834 665.001 84.8791 665.261 87.8642C665.52 90.5898 667.986 92.5366 670.712 92.5366H734.437C745.858 92.5366 755.592 83.5813 755.852 72.16Z" fill="white"/>
<path fill-rule="evenodd" clip-rule="evenodd" d="M954.948 49.7565C951.617 47.7031 947.69 46.5208 943.54 46.5208H879.815C877.089 46.5208 874.623 48.4676 874.364 51.1931C874.104 54.308 876.44 56.9037 879.555 56.9037C889.159 58.3313 898.374 61.7058 906.81 66.7675L909.536 68.4547C913.948 71.1802 912.002 77.9291 906.94 77.9291H876.7C871.638 77.9291 867.225 74.8143 865.408 70.2717L865.019 69.3632C860.996 59.759 851.261 53.2697 840.1 54.1782C828.679 55.0867 819.074 64.042 817.517 75.4632C816.479 83.3802 819.204 90.6482 824.136 95.9695L857.361 132.959C860.606 136.982 865.798 139.318 871.508 138.669C878.646 137.761 884.487 131.92 885.395 124.782C885.785 121.537 885.136 118.552 883.838 115.827L875.402 95.061C874.104 91.6865 876.57 88.0525 880.204 88.0525H944.189C948.101 88.0525 951.775 86.9656 954.914 85.0743C950.105 80.7205 947.085 74.4285 947.085 67.431C947.085 60.4167 950.12 54.1114 954.948 49.7565Z" fill="white"/>
<path fill-rule="evenodd" clip-rule="evenodd" d="M1091.75 52.6422C1088.74 56.7978 1086.97 61.9069 1086.97 67.4303C1086.97 77.7293 1093.13 86.5873 1101.98 90.5105C1100.46 93.7892 1097.37 96.2977 1093.69 96.9291C1089.28 97.7078 1085.25 96.0206 1082.79 92.9057C1080.19 89.9206 1076.56 88.2334 1072.66 88.2334H975.714C964.293 88.2334 954.429 79.2781 954.299 67.8569C954.04 56.1761 963.384 46.7016 975.065 46.7016H1039.44C1042.04 46.7016 1044.5 48.6485 1044.76 51.374C1045.15 54.4889 1042.68 57.0846 1039.7 57.0846C1029.96 58.5122 1020.75 61.8867 1012.44 66.9484L1009.72 68.6356C1005.31 71.2313 1007.12 77.9803 1012.31 77.9803H1057.48C1062.54 77.9803 1065.53 72.2696 1062.54 68.1165C1058.65 62.925 1054.62 56.5654 1058.13 48.5187C1060.72 42.808 1065.92 38.6549 1072.15 38.0059C1080.45 36.9676 1087.72 41.8995 1090.45 49.0378L1091.75 52.6422Z" fill="white"/>
<path d="M1359.23 46.5208C1370.78 46.5208 1380.25 56.125 1380 67.8058C1379.74 79.227 1370 88.1823 1358.58 88.1823H1294.85C1292.13 88.1823 1289.66 86.2355 1289.4 83.51C1289.14 80.3951 1291.48 77.7994 1294.6 77.7994C1304.2 76.3717 1313.54 72.9973 1321.85 67.9356L1324.58 66.2483C1328.99 63.5228 1327.04 56.7739 1321.98 56.7739H1276.81C1271.75 56.7739 1268.77 62.4845 1271.75 66.6377C1275.78 70.4015 1278.24 75.9823 1277.33 82.2121C1276.17 89.8695 1269.94 95.9695 1262.28 96.878C1253.84 97.9163 1246.57 92.9844 1243.85 85.8461H1243.72V85.5866C1243.46 84.9376 1243.33 84.4185 1243.2 83.7696L1240.47 75.0738C1236.19 60.9271 1246.7 46.5208 1261.5 46.5208H1359.23ZM1280.84 92.5951C1289.01 89.0908 1297.32 90.2589 1299.27 95.061C1301.21 99.8631 1296.15 106.482 1287.98 109.857C1279.67 113.231 1271.49 112.193 1269.42 107.391C1267.47 102.589 1272.53 95.9695 1280.84 92.5951Z" fill="white"/>
<path fill-rule="evenodd" clip-rule="evenodd" d="M1234.6 61.8496C1233.74 64.9744 1233.7 68.3639 1234.64 71.7098L1239.39 88.645C1238.25 91.3528 1236.64 93.82 1234.64 95.9695L1201.29 132.959C1198.04 136.982 1192.85 139.318 1187.14 138.54C1180 137.761 1174.16 131.92 1173.38 124.782C1172.86 121.537 1173.51 118.423 1174.81 115.827L1183.25 95.061C1184.68 91.6865 1182.21 88.0525 1178.58 88.0525H1115.24C1103.82 88.0525 1093.95 79.0972 1093.82 67.676C1093.57 55.9952 1102.91 46.5208 1114.59 46.5208H1178.96C1181.56 46.5208 1184.03 48.4676 1184.29 51.1931C1184.68 54.308 1182.21 56.9037 1179.22 56.9037C1169.49 58.3313 1160.28 61.7058 1151.97 66.7675L1149.24 68.4547C1144.83 71.0505 1146.65 77.7994 1151.84 77.7994H1182.08C1187.01 77.7994 1191.42 74.8143 1193.37 70.2717L1193.76 69.3632C1197.65 59.759 1207.52 53.2697 1218.68 54.1782C1224.88 54.671 1230.5 57.5321 1234.6 61.8496Z" fill="white"/>
<path fill-rule="evenodd" clip-rule="evenodd" d="M476.811 62.8321C474.295 67.4092 473.518 72.9427 475.072 78.3595L481.175 99.6288C480.92 99.9159 480.658 100.197 480.39 100.472L480.26 100.602C480.195 100.667 480.163 100.731 480.131 100.796C480.098 100.861 480.066 100.926 480.001 100.991L464.946 115.657C458.197 122.146 447.814 123.704 439.897 118.642C432.109 113.58 429.773 104.755 431.071 98.2655L431.201 97.7463C432.109 94.891 429.903 92.4251 426.788 92.4251H297.65C285.321 92.4251 275.587 81.7825 277.014 69.1932C278.053 59.8486 285.45 52.1912 294.795 51.0231C302.972 49.9848 310.24 53.6188 314.523 59.589L328.54 77.6294C330.746 80.4847 334.25 82.1719 337.884 82.1719H339.572C340.999 82.1719 341.908 80.7442 341.389 79.4464C339.961 76.2017 339.442 72.4379 340.091 68.5443C341.389 59.4592 348.786 52.1912 358.001 51.0231C366.048 49.9848 373.316 53.6188 377.469 59.589L390.059 75.8123C393.173 79.8357 398.105 82.1719 403.167 82.1719H429.384C433.797 82.1719 437.69 79.4464 439.118 75.2932C442.752 64.5209 453.524 57.123 465.854 58.6805C469.869 59.1528 473.609 60.6222 476.811 62.8321Z" fill="white"/>
</svg>
